<svg width="752" height="290" viewBox="0 9 752 274" fill="none" xmlns="http://www.w3.org/2000/svg">	
  <defs>
    <linearGradient id="gradient" x1="0%" y1="0%" x2="0%" y2="100%">
      <stop offset="0%" style="stop-color:#4B40EE;stop-opacity:0.2" />
      <stop offset="100%" style="stop-color:#4B40EE;stop-opacity:0" />
    </linearGradient>
  </defs>
  <path d="M0.889692 274.261L9.74769 257.079L18.6057 268.164L29.1246 265.393L37.9826 268.164L46.8406 262.622L55.6986 204.422L65.1102 69.7318L83.3798 162.297L93.3451 170.611L101.649 162.297L110.507 170.057L119.919 167.839L138.189 91.903L147.047 115.183L155.905 69.7318L165.316 1.00095L175.282 48.6691L183.586 68.0689L194.105 55.3205L201.856 32.0407L211.267 47.0063L220.679 17.0751L229.537 47.0063L238.948 13.1951L248.36 37.0292L256.664 102.434L266.63 57.5376L275.488 44.2349L284.346 63.0804L293.757 55.3205L302.615 66.4061L311.473 63.0804L320.885 50.332L330.85 60.309L339.708 135.137L349.12 141.788L357.424 119.063L366.836 110.194L376.247 133.474L385.659 130.703L394.517 145.114L403.929 86.9145L413.34 112.966L422.198 116.846L431.61 95.783L440.468 99.1087L449.326 126.823L458.738 109.086L467.596 124.051L477.007 116.846L485.865 139.571L495.277 142.343L504.135 161.742L522.405 129.04L531.816 151.765L540.674 190.011L550.086 185.022L558.39 194.999L568.355 199.434L577.213 193.336L587.179 144.005L594.929 151.211L604.895 150.103L613.753 126.268L622.611 168.394L632.576 162.851L641.434 151.211L650.292 155.091H660.257L669.115 162.851L678.527 152.874L687.385 146.777L696.243 151.211L715.066 149.548L723.37 152.32L734.443 150.657L743.855 153.428L751.605 150.103V300H0.889692V274.261Z" fill="url(#gradient)" />
  



<path d="M0.889692 274.261L9.74769  257.079L18.6057 268.164L29.1246 265.393L37.9826 268.164L46.8406 262.622L55.6986 204.422L65.1102 69.7318L83.3798 162.297L93.3451 170.611L101.649 162.297L110.507 170.057L119.919 167.839L138.189 91.903L147.047 115.183L155.905 69.7318L165.316 1.00095L175.282 48.6691L183.586 68.0689L194.105 55.3205L201.856 32.0407L211.267 47.0063L220.679 17.0751L229.537 47.0063L238.948 13.1951L248.36 37.0292L256.664 102.434L266.63 57.5376L275.488 44.2349L284.346 63.0804L293.757 55.3205L302.615 66.4061L311.473 63.0804L320.885 50.332L330.85 60.309L339.708 135.137L349.12 141.788L357.424 119.063L366.836 110.194L376.247 133.474L385.659 130.703L394.517 145.114L403.929 86.9145L413.34 112.966L422.198 116.846L431.61 95.783L440.468  99.1087L449.326 126.823L458.738 109.086L467.596 124.051L477.007 116.846L485.865 139.571L495.277 142.343L504.135 161.742L522.405 129.04L531.816 151.765L540.674 190.011L550.086 185.022L558.39 194.999L568.355 199.434L577.213 193.336L587.179 144.005L594.929 151.211L604.895 150.103L613.753 126.268L622.611 168.394L632.576 162.851L641.434 151.211L650.292 155.091H660.257L669.115 162.851L678.527 152.874L687.385 146.777L696.243 151.211L715.066 149.548L723.37 152.32L734.443 150.657L743.855 153.428L751.605 150.103" stroke="#4B40EE" stroke-width="2" stroke-linejoin="round"/> 






 <path d="M1 50 L790 50 " stroke="#A9A9A9" stroke-width="2" stroke-dasharray="5,5" fill="none" />
 <path d="M330 10 L330 390" stroke="#A9A9A9" stroke-width="2" stroke-dasharray="5,5" fill="none" />

 <path d="M0 20 L0 480" stroke="#D3D3D3" stroke-width="2" fill="none" />
  <!-- Second vertical line -->
  <path d="M120 10 L120 290" stroke="#D3D3D3" stroke-width="2" fill="none" />
  <!-- Third vertical line -->
  <path d="M250 10 L250 290" stroke="#D3D3D3" stroke-width="2" fill="none" />
  <!-- Third vertical line -->
  <path d="M395 10 L395 290" stroke="#D3D3D3" stroke-width="2" fill="none" />
    <!-- Third vertical line -->
  <path d="M505 10 L505 290" stroke="#D3D3D3" stroke-width="2" fill="none" />
    <!-- Third vertical line -->
  <path d="M625 10 L625 780" stroke="#D3D3D3" stroke-width="2" fill="none" />
    <!-- Third vertical line -->
  <path d="M750 10 L750 300" stroke="#D3D3D3" stroke-width="2" fill="none" /> 






  
<!--     
<path d="M0 274 L752 274" stroke="#D3D3D3" stroke-width="2" fill="none" /> -->
 

</svg>